<svg xmlns="http://www.w3.org/2000/svg" viewBox="0 0 24 24" width="100%" height="100%">
    <rect width="24" height="24" fill="#f8f9fa"/>
    <path d="M20 2H4c-1.1 0-2 .9-2 2v16c0 1.1.9 2 2 2h16c1.1 0 2-.9 2-2V4c0-1.1-.9-2-2-2zM9 18H7v-2h2v2zm0-4H7v-2h2v2zm0-4H7V8h2v2zm4 8h-2v-2h2v2zm0-4h-2v-2h2v2zm0-4h-2V8h2v2zm4 8h-2v-2h2v2zm0-4h-2v-2h2v2zm0-4h-2V8h2v2z" fill="#6c757d"/>
</svg>
    <path d="M14.5 12.59l.9 3.88-3.4-2.05-3.4 2.05.9-3.87-3-2.59 3.96-.34L12 6.02l1.54 3.64 3.96.34-3 2.59zM12 2C6.48 2 2 6.48 2 12s4.48 10 10 10 10-4.48 10-10S17.52 2 12 2zm0 18c-4.41 0-8-3.59-8-8s3.59-8 8-8 8 3.59 8 8-3.59 8-8 8z"/>
</svg>