<svg xmlns="http://www.w3.org/2000/svg" viewBox="0 0 900 600"><path fill="#bf0a30" d="M0 0h900v600H0z"/><path fill="#fff" d="M0 46.15h900v46.15H0zm0 92.3h900v46.15H0zm0 92.3h900v46.15H0zm0 92.3h900v46.15H0zm0 92.3h900v46.15H0zm0 92.3h900v46.15H0z"/><path fill="#002868" d="M0 0h360v323.1H0z"/><g fill="#fff"><path d="m29.63 26.05 3.6 11.09h11.65l-9.42 6.85 3.6 11.09-9.43-6.85-9.42 6.85 3.6-11.09-9.43-6.85h11.65zm60 0 3.6 11.09h11.65l-9.42 6.85 3.6 11.09-9.43-6.85-9.42 6.85 3.6-11.09-9.43-6.85h11.65zm60 0 3.6 11.09h11.65l-9.42 6.85 3.6 11.09-9.43-6.85-9.42 6.85 3.6-11.09-9.43-6.85h11.65zm60 0 3.6 11.09h11.65l-9.42 6.85 3.6 11.09-9.43-6.85-9.42 6.85 3.6-11.09-9.43-6.85h11.65zm60 0 3.6 11.09h11.65l-9.42 6.85 3.6 11.09-9.43-6.85-9.42 6.85 3.6-11.09-9.43-6.85h11.65zm60 0 3.6 11.09h11.65l-9.42 6.85 3.6 11.09-9.43-6.85-9.42 6.85 3.6-11.09-9.43-6.85h11.65zM59.63 64.36l3.6 11.09h11.65l-9.42 6.85 3.6 11.09-9.43-6.85-9.42 6.85 3.6-11.09-9.43-6.85h11.65zm60 0 3.6 11.09h11.65l-9.42 6.85 3.6 11.09-9.43-6.85-9.42 6.85 3.6-11.09-9.43-6.85h11.65zm60 0 3.6 11.09h11.65l-9.42 6.85 3.6 11.09-9.43-6.85-9.42 6.85 3.6-11.09-9.43-6.85h11.65zm60 0 3.6 11.09h11.65l-9.42 6.85 3.6 11.09-9.43-6.85-9.42 6.85 3.6-11.09-9.43-6.85h11.65zm60 0 3.6 11.09h11.65l-9.42 6.85 3.6 11.09-9.43-6.85-9.42 6.85 3.6-11.09-9.43-6.85h11.65zM29.63 102.67l3.6 11.09h11.65l-9.42 6.85 3.6 11.09-9.43-6.85-9.42 6.85 3.6-11.09-9.43-6.85h11.65zm60 0 3.6 11.09h11.65l-9.42 6.85 3.6 11.09-9.43-6.85-9.42 6.85 3.6-11.09-9.43-6.85h11.65zm60 0 3.6 11.09h11.65l-9.42 6.85 3.6 11.09-9.43-6.85-9.42 6.85 3.6-11.09-9.43-6.85h11.65zm60 0 3.6 11.09h11.65l-9.42 6.85 3.6 11.09-9.43-6.85-9.42 6.85 3.6-11.09-9.43-6.85h11.65zm60 0 3.6 11.09h11.65l-9.42 6.85 3.6 11.09-9.43-6.85-9.42 6.85 3.6-11.09-9.43-6.85h11.65zm60 0 3.6 11.09h11.65l-9.42 6.85 3.6 11.09-9.43-6.85-9.42 6.85 3.6-11.09-9.43-6.85h11.65zM59.63 140.98l3.6 11.09h11.65l-9.42 6.85 3.6 11.09-9.43-6.85-9.42 6.85 3.6-11.09-9.43-6.85h11.65zm60 0 3.6 11.09h11.65l-9.42 6.85 3.6 11.09-9.43-6.85-9.42 6.85 3.6-11.09-9.43-6.85h11.65zm60 0 3.6 11.09h11.65l-9.42 6.85 3.6 11.09-9.43-6.85-9.42 6.85 3.6-11.09-9.43-6.85h11.65zm60 0 3.6 11.09h11.65l-9.42 6.85 3.6 11.09-9.43-6.85-9.42 6.85 3.6-11.09-9.43-6.85h11.65zm60 0 3.6 11.09h11.65l-9.42 6.85 3.6 11.09-9.43-6.85-9.42 6.85 3.6-11.09-9.43-6.85h11.65zM29.63 179.29l3.6 11.09h11.65l-9.42 6.85 3.6 11.09-9.43-6.85-9.42 6.85 3.6-11.09-9.43-6.85h11.65zm60 0 3.6 11.09h11.65l-9.42 6.85 3.6 11.09-9.43-6.85-9.42 6.85 3.6-11.09-9.43-6.85h11.65zm60 0 3.6 11.09h11.65l-9.42 6.85 3.6 11.09-9.43-6.85-9.42 6.85 3.6-11.09-9.43-6.85h11.65zm60 0 3.6 11.09h11.65l-9.42 6.85 3.6 11.09-9.43-6.85-9.42 6.85 3.6-11.09-9.43-6.85h11.65zm60 0 3.6 11.09h11.65l-9.42 6.85 3.6 11.09-9.43-6.85-9.42 6.85 3.6-11.09-9.43-6.85h11.65zm60 0 3.6 11.09h11.65l-9.42 6.85 3.6 11.09-9.43-6.85-9.42 6.85 3.6-11.09-9.43-6.85h11.65zM59.63 217.6l3.6 11.09h11.65l-9.42 6.85 3.6 11.09-9.43-6.85-9.42 6.85 3.6-11.09-9.43-6.85h11.65zm60 0 3.6 11.09h11.65l-9.42 6.85 3.6 11.09-9.43-6.85-9.42 6.85 3.6-11.09-9.43-6.85h11.65zm60 0 3.6 11.09h11.65l-9.42 6.85 3.6 11.09-9.43-6.85-9.42 6.85 3.6-11.09-9.43-6.85h11.65zm60 0 3.6 11.09h11.65l-9.42 6.85 3.6 11.09-9.43-6.85-9.42 6.85 3.6-11.09-9.43-6.85h11.65zm60 0 3.6 11.09h11.65l-9.42 6.85 3.6 11.09-9.43-6.85-9.42 6.85 3.6-11.09-9.43-6.85h11.65zM29.63 255.91l3.6 11.09h11.65l-9.42 6.85 3.6 11.09-9.43-6.85-9.42 6.85 3.6-11.09-9.43-6.85h11.65zm60 0 3.6 11.09h11.65l-9.42 6.85 3.6 11.09-9.43-6.85-9.42 6.85 3.6-11.09-9.43-6.85h11.65zm60 0 3.6 11.09h11.65l-9.42 6.85 3.6 11.09-9.43-6.85-9.42 6.85 3.6-11.09-9.43-6.85h11.65zm60 0 3.6 11.09h11.65l-9.42 6.85 3.6 11.09-9.43-6.85-9.42 6.85 3.6-11.09-9.43-6.85h11.65zm60 0 3.6 11.09h11.65l-9.42 6.85 3.6 11.09-9.43-6.85-9.42 6.85 3.6-11.09-9.43-6.85h11.65zm60 0 3.6 11.09h11.65l-9.42 6.85 3.6 11.09-9.43-6.85-9.42 6.85 3.6-11.09-9.43-6.85h11.65z"/></g></svg>